0
SECTION
2
HEADER
9
$ACADVER
1
AC1009
9
$INSBASE
10
0.000
20
0.000
30
0.000
9
$EXTMIN
10
7513938.660
20
4691208.600
9
$EXTMAX
10
7513938.660
20
4691208.600
0
ENDSEC
0
SECTION
2
TABLES
0
TABLE
2
LTYPE
70
1
0
LTYPE
2
continuous
70
64
3
Solid line
72
65
73
0
40
0.000
0
ENDTAB
0
TABLE
2
LAYER
70
1
0
LAYER
2
Parcela
70
64
62
7
6
continuous
0
ENDTAB
0
TABLE
2
STYLE
70
1
0
STYLE
2
ANNOTATIVE
70
0
40
0
41
40
50
50
71
0
42
1
3
ARIAL.TTF
4

0
ENDTAB
0
TABLE
2
VIEW
70
0
0
ENDTAB
0
ENDSEC
0
SECTION
2
BLOCKS
0
ENDSEC
0
SECTION
2
ENTITIES
0
POLYLINE
66
1
8
Parcela Baze
70
0
10
7500162.570
20
4691471.523
0
VERTEX
8
Parcela Baze
10
7500162.570
20
4691471.523
0
VERTEX
8
Parcela Baze
10
7500168.550
20
4691464.033
0
VERTEX
8
Parcela Baze
10
7500174.020
20
4691452.913
0
VERTEX
8
Parcela Baze
10
7500180.480
20
4691441.964
0
VERTEX
8
Parcela Baze
10
7500190.480
20
4691430.434
0
VERTEX
8
Parcela Baze
10
7500195.250
20
4691421.584
0
VERTEX
8
Parcela Baze
10
7500195.170
20
4691412.815
0
VERTEX
8
Parcela Baze
10
7500192.159
20
4691407.945
0
VERTEX
8
Parcela Baze
10
7500186.979
20
4691403.585
0
VERTEX
8
Parcela Baze
10
7500176.660
20
4691415.765
0
VERTEX
8
Parcela Baze
10
7500139.000
20
4691458.703
0
VERTEX
8
Parcela Baze
10
7500162.570
20
4691471.523
0
SEQEND
0
TEXT
8
Nr Parceles Baze
10
7500167.470
20
4691428.534
40
0.800000
1
1529-0
0
TEXT
8
Nr e Pikave Gjeodezike te Parceles Baze
10
7500186.979
20
4691403.585
40
0.800000
1
744204
0
POINT
8
Pikat
10
7500186.979
20
4691403.585
0
TEXT
8
Nr e Pikave Gjeodezike te Parceles Baze
10
7500192.159
20
4691407.945
40
0.800000
1
744205
0
POINT
8
Pikat
10
7500192.159
20
4691407.945
0
TEXT
8
Nr e Pikave Gjeodezike te Parceles Baze
10
7500195.170
20
4691412.815
40
0.800000
1
744206
0
POINT
8
Pikat
10
7500195.170
20
4691412.815
0
TEXT
8
Nr e Pikave Gjeodezike te Parceles Baze
10
7500195.250
20
4691421.584
40
0.800000
1
744207
0
POINT
8
Pikat
10
7500195.250
20
4691421.584
0
TEXT
8
Nr e Pikave Gjeodezike te Parceles Baze
10
7500190.480
20
4691430.434
40
0.800000
1
744208
0
POINT
8
Pikat
10
7500190.480
20
4691430.434
0
TEXT
8
Nr e Pikave Gjeodezike te Parceles Baze
10
7500180.480
20
4691441.964
40
0.800000
1
744209
0
POINT
8
Pikat
10
7500180.480
20
4691441.964
0
TEXT
8
Nr e Pikave Gjeodezike te Parceles Baze
10
7500174.020
20
4691452.913
40
0.800000
1
744210
0
POINT
8
Pikat
10
7500174.020
20
4691452.913
0
TEXT
8
Nr e Pikave Gjeodezike te Parceles Baze
10
7500168.550
20
4691464.033
40
0.800000
1
744211
0
POINT
8
Pikat
10
7500168.550
20
4691464.033
0
TEXT
8
Nr e Pikave Gjeodezike te Parceles Baze
10
7500162.570
20
4691471.523
40
0.800000
1
744212
0
POINT
8
Pikat
10
7500162.570
20
4691471.523
0
TEXT
8
Nr e Pikave Gjeodezike te Parceles Baze
10
7500139.000
20
4691458.703
40
0.800000
1
745421
0
POINT
8
Pikat
10
7500139.000
20
4691458.703
0
TEXT
8
Nr e Pikave Gjeodezike te Parceles Baze
10
7500176.660
20
4691415.765
40
0.800000
1
745422
0
POINT
8
Pikat
10
7500176.660
20
4691415.765
0
ENDSEC
0
EOF
