0
SECTION
2
HEADER
9
$ACADVER
1
AC1009
9
$INSBASE
10
0.000
20
0.000
30
0.000
9
$EXTMIN
10
7513938.660
20
4691208.600
9
$EXTMAX
10
7513938.660
20
4691208.600
0
ENDSEC
0
SECTION
2
TABLES
0
TABLE
2
LTYPE
70
1
0
LTYPE
2
continuous
70
64
3
Solid line
72
65
73
0
40
0.000
0
ENDTAB
0
TABLE
2
LAYER
70
1
0
LAYER
2
Parcela
70
64
62
7
6
continuous
0
ENDTAB
0
TABLE
2
STYLE
70
1
0
STYLE
2
ANNOTATIVE
70
0
40
0
41
40
50
50
71
0
42
1
3
ARIAL.TTF
4

0
ENDTAB
0
TABLE
2
VIEW
70
0
0
ENDTAB
0
ENDSEC
0
SECTION
2
BLOCKS
0
ENDSEC
0
SECTION
2
ENTITIES
0
POLYLINE
66
1
8
Parcela Baze
70
0
10
7500176.389
20
4691400.555
0
VERTEX
8
Parcela Baze
10
7500176.389
20
4691400.555
0
VERTEX
8
Parcela Baze
10
7500186.979
20
4691403.585
0
VERTEX
8
Parcela Baze
10
7500213.319
20
4691374.746
0
VERTEX
8
Parcela Baze
10
7500266.414
20
4691360.274
0
VERTEX
8
Parcela Baze
10
7500179.499
20
4691324.749
0
VERTEX
8
Parcela Baze
10
7500172.156
20
4691351.338
0
VERTEX
8
Parcela Baze
10
7500134.161
20
4691405.257
0
VERTEX
8
Parcela Baze
10
7500156.049
20
4691403.775
0
VERTEX
8
Parcela Baze
10
7500171.659
20
4691401.035
0
VERTEX
8
Parcela Baze
10
7500176.389
20
4691400.555
0
SEQEND
0
TEXT
8
Nr Parceles Baze
10
7500157.639
20
4691381.076
40
0.800000
1
1530-0
0
TEXT
8
Nr e Pikave Gjeodezike te Parceles Baze
10
7500213.319
20
4691374.746
40
0.800000
1
744203
0
POINT
8
Pikat
10
7500213.319
20
4691374.746
0
TEXT
8
Nr e Pikave Gjeodezike te Parceles Baze
10
7500186.979
20
4691403.585
40
0.800000
1
744204
0
POINT
8
Pikat
10
7500186.979
20
4691403.585
0
TEXT
8
Nr e Pikave Gjeodezike te Parceles Baze
10
7500179.499
20
4691324.749
40
0.800000
1
744263
0
POINT
8
Pikat
10
7500179.499
20
4691324.749
0
TEXT
8
Nr e Pikave Gjeodezike te Parceles Baze
10
7500176.389
20
4691400.555
40
0.800000
1
745417
0
POINT
8
Pikat
10
7500176.389
20
4691400.555
0
TEXT
8
Nr e Pikave Gjeodezike te Parceles Baze
10
7500171.659
20
4691401.035
40
0.800000
1
745418
0
POINT
8
Pikat
10
7500171.659
20
4691401.035
0
TEXT
8
Nr e Pikave Gjeodezike te Parceles Baze
10
7500156.049
20
4691403.775
40
0.800000
1
745419
0
POINT
8
Pikat
10
7500156.049
20
4691403.775
0
TEXT
8
Nr e Pikave Gjeodezike te Parceles Baze
10
7500266.414
20
4691360.274
40
0.800000
1
759078
0
POINT
8
Pikat
10
7500266.414
20
4691360.274
0
TEXT
8
Nr e Pikave Gjeodezike te Parceles Baze
10
7500134.161
20
4691405.257
40
0.800000
1
759075
0
POINT
8
Pikat
10
7500134.161
20
4691405.257
0
TEXT
8
Nr e Pikave Gjeodezike te Parceles Baze
10
7500172.156
20
4691351.338
40
0.800000
1
759076
0
POINT
8
Pikat
10
7500172.156
20
4691351.338
0
ENDSEC
0
EOF
