0
SECTION
2
HEADER
9
$ACADVER
1
AC1009
9
$INSBASE
10
0.000
20
0.000
30
0.000
9
$EXTMIN
10
7513938.660
20
4691208.600
9
$EXTMAX
10
7513938.660
20
4691208.600
0
ENDSEC
0
SECTION
2
TABLES
0
TABLE
2
LTYPE
70
1
0
LTYPE
2
continuous
70
64
3
Solid line
72
65
73
0
40
0.000
0
ENDTAB
0
TABLE
2
LAYER
70
1
0
LAYER
2
Parcela
70
64
62
7
6
continuous
0
ENDTAB
0
TABLE
2
STYLE
70
1
0
STYLE
2
ANNOTATIVE
70
0
40
0
41
40
50
50
71
0
42
1
3
ARIAL.TTF
4

0
ENDTAB
0
TABLE
2
VIEW
70
0
0
ENDTAB
0
ENDSEC
0
SECTION
2
BLOCKS
0
ENDSEC
0
SECTION
2
ENTITIES
0
POLYLINE
66
1
8
Parcela Baze
70
0
10
7500158.317
20
4691320.921
0
VERTEX
8
Parcela Baze
10
7500158.317
20
4691320.921
0
VERTEX
8
Parcela Baze
10
7500163.480
20
4691329.758
0
VERTEX
8
Parcela Baze
10
7500171.348
20
4691326.691
0
VERTEX
8
Parcela Baze
10
7500179.499
20
4691324.749
0
VERTEX
8
Parcela Baze
10
7500181.307
20
4691324.607
0
VERTEX
8
Parcela Baze
10
7500218.909
20
4691324.970
0
VERTEX
8
Parcela Baze
10
7500252.267
20
4691330.320
0
VERTEX
8
Parcela Baze
10
7500256.792
20
4691331.046
0
VERTEX
8
Parcela Baze
10
7500210.548
20
4691238.732
0
VERTEX
8
Parcela Baze
10
7500199.678
20
4691248.171
0
VERTEX
8
Parcela Baze
10
7500185.748
20
4691262.686
0
VERTEX
8
Parcela Baze
10
7500178.868
20
4691266.841
0
VERTEX
8
Parcela Baze
10
7500155.828
20
4691283.290
0
VERTEX
8
Parcela Baze
10
7500157.499
20
4691308.739
0
VERTEX
8
Parcela Baze
10
7500158.317
20
4691320.921
0
SEQEND
0
TEXT
8
Nr Parceles Baze
10
7500201.148
20
4691294.382
40
0.800000
1
3584-4
0
TEXT
8
Nr e Pikave Gjeodezike te Parceles Baze
10
7500210.548
20
4691238.732
40
0.800000
1
743826
0
POINT
8
Pikat
10
7500210.548
20
4691238.732
0
TEXT
8
Nr e Pikave Gjeodezike te Parceles Baze
10
7500158.317
20
4691320.921
40
0.800000
1
743908
0
POINT
8
Pikat
10
7500158.317
20
4691320.921
0
TEXT
8
Nr e Pikave Gjeodezike te Parceles Baze
10
7500157.499
20
4691308.739
40
0.800000
1
743909
0
POINT
8
Pikat
10
7500157.499
20
4691308.739
0
TEXT
8
Nr e Pikave Gjeodezike te Parceles Baze
10
7500155.828
20
4691283.290
40
0.800000
1
743910
0
POINT
8
Pikat
10
7500155.828
20
4691283.290
0
TEXT
8
Nr e Pikave Gjeodezike te Parceles Baze
10
7500178.868
20
4691266.841
40
0.800000
1
743911
0
POINT
8
Pikat
10
7500178.868
20
4691266.841
0
TEXT
8
Nr e Pikave Gjeodezike te Parceles Baze
10
7500185.748
20
4691262.686
40
0.800000
1
743912
0
POINT
8
Pikat
10
7500185.748
20
4691262.686
0
TEXT
8
Nr e Pikave Gjeodezike te Parceles Baze
10
7500199.678
20
4691248.171
40
0.800000
1
743913
0
POINT
8
Pikat
10
7500199.678
20
4691248.171
0
TEXT
8
Nr e Pikave Gjeodezike te Parceles Baze
10
7500179.499
20
4691324.749
40
0.800000
1
744263
0
POINT
8
Pikat
10
7500179.499
20
4691324.749
0
TEXT
8
Nr e Pikave Gjeodezike te Parceles Baze
10
7500252.267
20
4691330.320
40
0.800000
1
759302
0
POINT
8
Pikat
10
7500252.267
20
4691330.320
0
TEXT
8
Nr e Pikave Gjeodezike te Parceles Baze
10
7500163.480
20
4691329.758
40
0.800000
1
759324
0
POINT
8
Pikat
10
7500163.480
20
4691329.758
0
TEXT
8
Nr e Pikave Gjeodezike te Parceles Baze
10
7500171.348
20
4691326.691
40
0.800000
1
759327
0
POINT
8
Pikat
10
7500171.348
20
4691326.691
0
TEXT
8
Nr e Pikave Gjeodezike te Parceles Baze
10
7500181.307
20
4691324.607
40
0.800000
1
759328
0
POINT
8
Pikat
10
7500181.307
20
4691324.607
0
TEXT
8
Nr e Pikave Gjeodezike te Parceles Baze
10
7500218.909
20
4691324.970
40
0.800000
1
759329
0
POINT
8
Pikat
10
7500218.909
20
4691324.970
0
TEXT
8
Nr e Pikave Gjeodezike te Parceles Baze
10
7500256.792
20
4691331.046
40
0.800000
1
759330
0
POINT
8
Pikat
10
7500256.792
20
4691331.046
0
ENDSEC
0
EOF
