0
SECTION
2
HEADER
9
$ACADVER
1
AC1009
9
$INSBASE
10
0.000
20
0.000
30
0.000
9
$EXTMIN
10
7513938.660
20
4691208.600
9
$EXTMAX
10
7513938.660
20
4691208.600
0
ENDSEC
0
SECTION
2
TABLES
0
TABLE
2
LTYPE
70
1
0
LTYPE
2
continuous
70
64
3
Solid line
72
65
73
0
40
0.000
0
ENDTAB
0
TABLE
2
LAYER
70
1
0
LAYER
2
Parcela
70
64
62
7
6
continuous
0
ENDTAB
0
TABLE
2
STYLE
70
1
0
STYLE
2
ANNOTATIVE
70
0
40
0
41
40
50
50
71
0
42
1
3
ARIAL.TTF
4

0
ENDTAB
0
TABLE
2
VIEW
70
0
0
ENDTAB
0
ENDSEC
0
SECTION
2
BLOCKS
0
ENDSEC
0
SECTION
2
ENTITIES
0
POLYLINE
66
1
8
Parcela Baze
70
0
10
7500156.703
20
4691323.795
0
VERTEX
8
Parcela Baze
10
7500156.703
20
4691323.795
0
VERTEX
8
Parcela Baze
10
7500169.774
20
4691351.144
0
VERTEX
8
Parcela Baze
10
7500151.599
20
4691380.243
0
VERTEX
8
Parcela Baze
10
7500131.684
20
4691400.026
0
VERTEX
8
Parcela Baze
10
7500119.987
20
4691410.397
0
VERTEX
8
Parcela Baze
10
7500110.611
20
4691428.447
0
VERTEX
8
Parcela Baze
10
7500105.806
20
4691434.080
0
VERTEX
8
Parcela Baze
10
7500094.933
20
4691442.065
0
VERTEX
8
Parcela Baze
10
7500092.668
20
4691444.033
0
VERTEX
8
Parcela Baze
10
7500090.348
20
4691446.096
0
VERTEX
8
Parcela Baze
10
7500097.129
20
4691445.394
0
VERTEX
8
Parcela Baze
10
7500108.648
20
4691436.883
0
VERTEX
8
Parcela Baze
10
7500113.851
20
4691430.730
0
VERTEX
8
Parcela Baze
10
7500123.633
20
4691412.160
0
VERTEX
8
Parcela Baze
10
7500125.305
20
4691417.615
0
VERTEX
8
Parcela Baze
10
7500134.161
20
4691405.257
0
VERTEX
8
Parcela Baze
10
7500172.156
20
4691351.338
0
VERTEX
8
Parcela Baze
10
7500179.499
20
4691324.749
0
VERTEX
8
Parcela Baze
10
7500171.348
20
4691326.691
0
VERTEX
8
Parcela Baze
10
7500163.480
20
4691329.758
0
VERTEX
8
Parcela Baze
10
7500158.317
20
4691320.921
0
VERTEX
8
Parcela Baze
10
7500156.703
20
4691323.795
0
SEQEND
0
TEXT
8
Nr Parceles Baze
10
7500143.972
20
4691378.872
40
0.800000
1
3584-2
0
TEXT
8
Nr e Pikave Gjeodezike te Parceles Baze
10
7500092.668
20
4691444.033
40
0.800000
1
759301
0
POINT
8
Pikat
10
7500092.668
20
4691444.033
0
TEXT
8
Nr e Pikave Gjeodezike te Parceles Baze
10
7500131.684
20
4691400.026
40
0.800000
1
759303
0
POINT
8
Pikat
10
7500131.684
20
4691400.026
0
TEXT
8
Nr e Pikave Gjeodezike te Parceles Baze
10
7500151.599
20
4691380.243
40
0.800000
1
759304
0
POINT
8
Pikat
10
7500151.599
20
4691380.243
0
TEXT
8
Nr e Pikave Gjeodezike te Parceles Baze
10
7500094.933
20
4691442.065
40
0.800000
1
759308
0
POINT
8
Pikat
10
7500094.933
20
4691442.065
0
TEXT
8
Nr e Pikave Gjeodezike te Parceles Baze
10
7500090.348
20
4691446.096
40
0.800000
1
759310
0
POINT
8
Pikat
10
7500090.348
20
4691446.096
0
TEXT
8
Nr e Pikave Gjeodezike te Parceles Baze
10
7500097.129
20
4691445.394
40
0.800000
1
759311
0
POINT
8
Pikat
10
7500097.129
20
4691445.394
0
TEXT
8
Nr e Pikave Gjeodezike te Parceles Baze
10
7500105.806
20
4691434.080
40
0.800000
1
759318
0
POINT
8
Pikat
10
7500105.806
20
4691434.080
0
TEXT
8
Nr e Pikave Gjeodezike te Parceles Baze
10
7500108.648
20
4691436.883
40
0.800000
1
759319
0
POINT
8
Pikat
10
7500108.648
20
4691436.883
0
TEXT
8
Nr e Pikave Gjeodezike te Parceles Baze
10
7500113.851
20
4691430.730
40
0.800000
1
759320
0
POINT
8
Pikat
10
7500113.851
20
4691430.730
0
TEXT
8
Nr e Pikave Gjeodezike te Parceles Baze
10
7500110.611
20
4691428.447
40
0.800000
1
759321
0
POINT
8
Pikat
10
7500110.611
20
4691428.447
0
TEXT
8
Nr e Pikave Gjeodezike te Parceles Baze
10
7500119.987
20
4691410.397
40
0.800000
1
759322
0
POINT
8
Pikat
10
7500119.987
20
4691410.397
0
TEXT
8
Nr e Pikave Gjeodezike te Parceles Baze
10
7500123.633
20
4691412.160
40
0.800000
1
759323
0
POINT
8
Pikat
10
7500123.633
20
4691412.160
0
TEXT
8
Nr e Pikave Gjeodezike te Parceles Baze
10
7500163.480
20
4691329.758
40
0.800000
1
759324
0
POINT
8
Pikat
10
7500163.480
20
4691329.758
0
TEXT
8
Nr e Pikave Gjeodezike te Parceles Baze
10
7500156.703
20
4691323.795
40
0.800000
1
759325
0
POINT
8
Pikat
10
7500156.703
20
4691323.795
0
TEXT
8
Nr e Pikave Gjeodezike te Parceles Baze
10
7500169.774
20
4691351.144
40
0.800000
1
759326
0
POINT
8
Pikat
10
7500169.774
20
4691351.144
0
TEXT
8
Nr e Pikave Gjeodezike te Parceles Baze
10
7500171.348
20
4691326.691
40
0.800000
1
759327
0
POINT
8
Pikat
10
7500171.348
20
4691326.691
0
TEXT
8
Nr e Pikave Gjeodezike te Parceles Baze
10
7500158.317
20
4691320.921
40
0.800000
1
743908
0
POINT
8
Pikat
10
7500158.317
20
4691320.921
0
TEXT
8
Nr e Pikave Gjeodezike te Parceles Baze
10
7500179.499
20
4691324.749
40
0.800000
1
744263
0
POINT
8
Pikat
10
7500179.499
20
4691324.749
0
TEXT
8
Nr e Pikave Gjeodezike te Parceles Baze
10
7500125.305
20
4691417.615
40
0.800000
1
759074
0
POINT
8
Pikat
10
7500125.305
20
4691417.615
0
TEXT
8
Nr e Pikave Gjeodezike te Parceles Baze
10
7500134.161
20
4691405.257
40
0.800000
1
759075
0
POINT
8
Pikat
10
7500134.161
20
4691405.257
0
TEXT
8
Nr e Pikave Gjeodezike te Parceles Baze
10
7500172.156
20
4691351.338
40
0.800000
1
759076
0
POINT
8
Pikat
10
7500172.156
20
4691351.338
0
ENDSEC
0
EOF
